<?xml version="1.0" encoding="utf-8"?>
<!-- Generator: Adobe Illustrator 25.2.3, SVG Export Plug-In . SVG Version: 6.00 Build 0)  -->
<svg version="1.1" id="Layer_1" xmlns="http://www.w3.org/2000/svg" xmlns:xlink="http://www.w3.org/1999/xlink" x="0px" y="0px"
	 viewBox="0 0 100 25" style="enable-background:new 0 0 100 25;" xml:space="preserve">
<style type="text/css">
	.st0{fill:#EC4E38;}
</style>
<path class="st0" d="M15.35,12.75l-1.03,1.33H9.76V8.92h5.59l-1.03,1.33h-2.96v0.55h3.74l-1.03,1.33h-2.71v0.61H15.35z"/>
<path class="st0" d="M15.67,16.6h-2.43L5.4,12.35l0.02,4.24h-1.6V6.86H5.4v3.83l5.53-3.96l2.24,0.13l-6.58,4.68L15.67,16.6z"/>
<path class="st0" d="M21.89,13.41c0,0.47-0.21,0.7-0.64,0.7c-0.3,0-0.6-0.11-0.87-0.34l-3.02-2.52v2.83h-1.6V9.58
	c0-0.19,0.06-0.35,0.18-0.47s0.29-0.19,0.52-0.19c0.29,0,0.56,0.1,0.81,0.31l3.02,2.53V8.92h1.6V13.41z"/>
<path class="st0" d="M28.79,13.41c0,0.47-0.21,0.7-0.64,0.7c-0.3,0-0.6-0.11-0.87-0.34l-3.02-2.52v2.83h-1.6V9.58
	c0-0.19,0.06-0.35,0.18-0.47s0.29-0.19,0.52-0.19c0.29,0,0.56,0.1,0.81,0.31l3.02,2.53V8.92h1.6V13.41z"/>
<path class="st0" d="M34.87,12.75l-1.03,1.33h-4.57V8.92h5.59l-1.03,1.33h-2.96v0.55h3.74l-1.03,1.33h-2.71v0.61H34.87z"/>
<path class="st0" d="M41.11,8.92l-1.04,1.33h-1.54v3.82h-1.6v-3.82h-2.12l1.03-1.33H41.11z"/>
<path class="st0" d="M47.78,14.08h-1.6v-1.93h-3.06v1.93h-1.6V8.92h1.6v1.89h3.06V8.92h1.6V14.08z"/>
<path class="st0" d="M65.64,14.08h-2.32l-1.56-1.29h-2.2v1.29h-1.6v-2.62h4.44c0.27,0,0.5-0.04,0.67-0.12
	c0.22-0.11,0.34-0.26,0.34-0.47c0-0.4-0.34-0.61-1.01-0.61h-4.44L59,8.92h3.25c0.8,0,1.46,0.15,1.96,0.46
	c0.56,0.35,0.84,0.84,0.84,1.49c0,0.36-0.11,0.69-0.34,0.98c-0.23,0.29-0.54,0.52-0.94,0.68L65.64,14.08z"/>
<path class="st0" d="M68.31,14.08l0.96-1.33h2.15l-1.34-1.86l-2.32,3.19h-1.98l3.3-4.58c0.1-0.15,0.25-0.29,0.44-0.4
	c0.2-0.12,0.4-0.19,0.59-0.19c0.2,0,0.39,0.06,0.59,0.19c0.18,0.11,0.32,0.24,0.43,0.4l3.22,4.58H68.31z"/>
<path class="st0" d="M83.93,14.09h-1.75l-0.68-2.72l-1.44,2.32c-0.19,0.3-0.45,0.45-0.79,0.45c-0.17,0-0.34-0.04-0.5-0.13
	c-0.16-0.09-0.28-0.19-0.36-0.32l-1.45-2.32l-0.67,2.72h-1.76l1.34-4.57c0.05-0.19,0.16-0.34,0.33-0.47
	c0.17-0.13,0.36-0.19,0.58-0.19c0.34,0,0.63,0.2,0.88,0.6l1.57,2.56l1.58-2.56c0.24-0.4,0.53-0.6,0.87-0.6
	c0.22,0,0.42,0.06,0.59,0.19c0.17,0.13,0.28,0.28,0.34,0.47L83.93,14.09z"/>
<path class="st0" d="M91.06,10.85c0,0.58-0.25,1.05-0.75,1.41c-0.48,0.34-1.08,0.51-1.78,0.51h-2.69v1.29h-1.6v-2.62h4.44
	c0.22,0,0.4-0.06,0.55-0.17c0.15-0.11,0.23-0.26,0.23-0.44c0-0.18-0.08-0.33-0.23-0.43c-0.15-0.11-0.33-0.16-0.55-0.16h-4.44
	l1.06-1.33h3.24c0.7,0,1.3,0.17,1.78,0.51C90.81,9.8,91.06,10.27,91.06,10.85z"/>
<path class="st0" d="M96.78,12.75l-1.03,1.33h-4.57V8.92h5.59l-1.03,1.33h-2.96v0.55h3.74l-1.03,1.33h-2.71v0.61H96.78z"/>
<path class="st0" d="M63.89,16.44h-2.43l-7.84-4.24l0.02,4.24h-1.6V6.7h1.58v3.83l5.53-3.96l2.24,0.13l-6.58,4.68L63.89,16.44z"/>
</svg>
