<?xml version="1.0" encoding="utf-8"?>
<!-- Generator: Adobe Illustrator 25.2.3, SVG Export Plug-In . SVG Version: 6.00 Build 0)  -->
<svg version="1.1" id="Layer_1" xmlns="http://www.w3.org/2000/svg" xmlns:xlink="http://www.w3.org/1999/xlink" x="0px" y="0px"
	 viewBox="0 0 400 100" style="enable-background:new 0 0 400 100;" xml:space="preserve">
<style type="text/css">
	.st0{fill:#EC4E38;}
</style>
<path class="st0" d="M56.05,54.14l-4.24,5.47H33V38.39h23.04l-4.24,5.47H39.6v2.27h15.42l-4.24,5.47H39.6v2.53H56.05z"/>
<path class="st0" d="M57.35,70H47.32L15.04,52.52L15.12,70h-6.6V29.88h6.52v15.78l22.78-16.31l9.24,0.53l-27.1,19.29L57.35,70z"/>
<path class="st0" d="M82.98,56.88c0,1.92-0.87,2.88-2.62,2.88c-1.26,0-2.45-0.47-3.59-1.41L64.35,47.96v11.65h-6.59V41.11
	c0-0.79,0.25-1.43,0.75-1.94c0.5-0.51,1.21-0.77,2.13-0.77c1.2,0,2.31,0.42,3.33,1.27l12.42,10.42V38.39h6.59V56.88z"/>
<path class="st0" d="M111.41,56.88c0,1.92-0.87,2.88-2.62,2.88c-1.26,0-2.45-0.47-3.59-1.41L92.78,47.96v11.65h-6.59V41.11
	c0-0.79,0.25-1.43,0.75-1.94c0.5-0.51,1.21-0.77,2.13-0.77c1.2,0,2.31,0.42,3.33,1.27l12.42,10.42V38.39h6.59V56.88z"/>
<path class="st0" d="M136.46,54.14l-4.24,5.47h-18.81V38.39h23.04l-4.24,5.47H120v2.27h15.42l-4.24,5.47H120v2.53H136.46z"/>
<path class="st0" d="M162.18,38.39l-4.27,5.47h-6.36v15.75h-6.59V43.87h-8.74l4.24-5.47H162.18z"/>
<path class="st0" d="M189.64,59.61h-6.59v-7.95h-12.6v7.95h-6.59V38.39h6.59v7.8h12.6v-7.8h6.59V59.61z"/>
<path class="st0" d="M263.22,59.61h-9.57l-6.42-5.33h-9.06v5.33h-6.59v-10.8h18.31c1.12,0,2.04-0.17,2.77-0.51
	c0.92-0.44,1.38-1.08,1.38-1.94c0-1.67-1.38-2.5-4.15-2.5h-18.31l4.3-5.47h13.39c3.32,0,6,0.63,8.06,1.88
	c2.31,1.43,3.47,3.47,3.47,6.12c0,1.49-0.47,2.84-1.4,4.05c-0.93,1.21-2.22,2.13-3.87,2.78L263.22,59.61z"/>
<path class="st0" d="M274.22,59.61l3.97-5.47h8.86l-5.5-7.65l-9.57,13.13h-8.15l13.6-18.87c0.43-0.63,1.03-1.18,1.8-1.65
	c0.84-0.51,1.66-0.77,2.44-0.77c0.8,0,1.62,0.26,2.44,0.77c0.73,0.45,1.31,1,1.77,1.65l13.27,18.87H274.22z"/>
<path class="st0" d="M338.56,59.67h-7.21l-2.8-11.21l-5.95,9.57c-0.79,1.24-1.86,1.85-3.24,1.85c-0.71,0-1.39-0.18-2.06-0.53
	c-0.67-0.35-1.17-0.79-1.5-1.32l-5.97-9.57l-2.77,11.21h-7.24l5.5-18.84c0.22-0.77,0.67-1.41,1.37-1.93c0.7-0.52,1.5-0.78,2.4-0.78
	c1.39,0,2.6,0.82,3.62,2.47l6.47,10.57l6.5-10.57c1-1.65,2.2-2.47,3.59-2.47c0.92,0,1.73,0.26,2.41,0.78
	c0.69,0.52,1.15,1.16,1.38,1.93L338.56,59.67z"/>
<path class="st0" d="M367.93,46.34c0,2.39-1.03,4.34-3.09,5.83c-1.98,1.41-4.43,2.12-7.35,2.12h-11.08v5.33h-6.59v-10.8h18.31
	c0.9,0,1.66-0.23,2.28-0.68c0.62-0.46,0.93-1.06,0.93-1.82c0-0.75-0.31-1.35-0.93-1.79c-0.62-0.44-1.38-0.66-2.28-0.66h-18.31
	l4.36-5.47h13.33c2.9,0,5.35,0.71,7.33,2.12C366.9,42,367.93,43.95,367.93,46.34z"/>
<path class="st0" d="M391.48,54.14l-4.24,5.47h-18.81V38.39h23.04l-4.24,5.47h-12.21v2.27h15.42l-4.24,5.47h-11.18v2.53H391.48z"/>
<path class="st0" d="M255.99,69.37h-10.03l-32.28-17.48l0.08,17.48h-6.6V29.25h6.52v15.78l22.78-16.31l9.24,0.53l-27.1,19.29
	L255.99,69.37z"/>
</svg>
