<?xml version="1.0" encoding="utf-8"?>
<!-- Generator: Adobe Illustrator 25.2.3, SVG Export Plug-In . SVG Version: 6.00 Build 0)  -->
<svg version="1.1" id="Layer_1" xmlns="http://www.w3.org/2000/svg" xmlns:xlink="http://www.w3.org/1999/xlink" x="0px" y="0px"
	 viewBox="0 0 400 100" style="enable-background:new 0 0 400 100;" xml:space="preserve">
<style type="text/css">
	.st0{fill:#1F5A78;}
</style>
<path class="st0" d="M56,54.1l-4.2,5.5H33V38.4h23l-4.2,5.5H39.6v2.3H55l-4.2,5.5H39.6v2.5L56,54.1L56,54.1z"/>
<path class="st0" d="M57.3,70h-10L15,52.5L15.1,70H8.5V29.9H15v15.8l22.8-16.3l9.2,0.5L20,49.2L57.3,70z"/>
<path class="st0" d="M83,56.9c0,1.9-0.9,2.9-2.6,2.9c-1.3,0-2.4-0.5-3.6-1.4L64.3,48v11.7h-6.6V41.1c0-0.8,0.2-1.4,0.8-1.9
	s1.2-0.8,2.1-0.8c1.2,0,2.3,0.4,3.3,1.3l12.4,10.4V38.4H83C83,38.4,83,56.9,83,56.9z"/>
<path class="st0" d="M111.4,56.9c0,1.9-0.9,2.9-2.6,2.9c-1.3,0-2.4-0.5-3.6-1.4L92.8,48v11.7h-6.6V41.1c0-0.8,0.2-1.4,0.8-1.9
	s1.2-0.8,2.1-0.8c1.2,0,2.3,0.4,3.3,1.3l12.4,10.4V38.4h6.6V56.9z"/>
<path class="st0" d="M136.5,54.1l-4.2,5.5h-18.8V38.4h23l-4.2,5.5H120v2.3h15.4l-4.2,5.5H120v2.5L136.5,54.1L136.5,54.1z"/>
<path class="st0" d="M162.2,38.4l-4.3,5.5h-6.4v15.8H145V43.9h-8.7l4.2-5.5L162.2,38.4L162.2,38.4z"/>
<path class="st0" d="M189.6,59.6h-6.6v-8h-12.6v8h-6.6V38.4h6.6v7.8h12.6v-7.8h6.6V59.6z"/>
<path class="st0" d="M263.2,59.6h-9.6l-6.4-5.3h-9.1v5.3h-6.6V48.8h18.3c1.1,0,2-0.2,2.8-0.5c0.9-0.4,1.4-1.1,1.4-1.9
	c0-1.7-1.4-2.5-4.1-2.5h-18.3l4.3-5.5h13.4c3.3,0,6,0.6,8.1,1.9c2.3,1.4,3.5,3.5,3.5,6.1c0,1.5-0.5,2.8-1.4,4s-2.2,2.1-3.9,2.8
	L263.2,59.6z"/>
<path class="st0" d="M274.2,59.6l4-5.5h8.9l-5.5-7.7L272,59.6h-8.1l13.6-18.9c0.4-0.6,1-1.2,1.8-1.7c0.8-0.5,1.7-0.8,2.4-0.8
	c0.8,0,1.6,0.3,2.4,0.8c0.7,0.5,1.3,1,1.8,1.7l13.3,18.9L274.2,59.6L274.2,59.6z"/>
<path class="st0" d="M338.6,59.7h-7.2l-2.8-11.2l-6,9.6c-0.8,1.2-1.9,1.8-3.2,1.8c-0.7,0-1.4-0.2-2.1-0.5c-0.7-0.3-1.2-0.8-1.5-1.3
	l-6-9.6l-2.8,11.2h-7.2l5.5-18.8c0.2-0.8,0.7-1.4,1.4-1.9c0.7-0.5,1.5-0.8,2.4-0.8c1.4,0,2.6,0.8,3.6,2.5l6.5,10.6l6.5-10.6
	c1-1.7,2.2-2.5,3.6-2.5c0.9,0,1.7,0.3,2.4,0.8c0.7,0.5,1.1,1.2,1.4,1.9L338.6,59.7z"/>
<path class="st0" d="M367.9,46.3c0,2.4-1,4.3-3.1,5.8c-2,1.4-4.4,2.1-7.4,2.1h-11.1v5.3h-6.6V48.8h18.3c0.9,0,1.7-0.2,2.3-0.7
	c0.6-0.5,0.9-1.1,0.9-1.8c0-0.8-0.3-1.3-0.9-1.8c-0.6-0.4-1.4-0.7-2.3-0.7h-18.3l4.4-5.5h13.3c2.9,0,5.4,0.7,7.3,2.1
	C366.9,42,367.9,44,367.9,46.3z"/>
<path class="st0" d="M391.5,54.1l-4.2,5.5h-18.8V38.4h23l-4.2,5.5H375v2.3h15.4l-4.2,5.5H375v2.5L391.5,54.1L391.5,54.1z"/>
<path class="st0" d="M256,69.4h-10l-32.3-17.5l0.1,17.5h-6.6V29.2h6.5V45l22.8-16.3l9.2,0.5l-27.1,19.3L256,69.4z"/>
</svg>
