<?xml version="1.0" encoding="utf-8"?>
<!-- Generator: Adobe Illustrator 25.2.3, SVG Export Plug-In . SVG Version: 6.00 Build 0)  -->
<svg version="1.1" id="Layer_1" xmlns="http://www.w3.org/2000/svg" xmlns:xlink="http://www.w3.org/1999/xlink" x="0px" y="0px"
	 viewBox="0 0 40 10" style="enable-background:new 0 0 40 10;" xml:space="preserve">
<style type="text/css">
	.st0{fill:#EC4E38;}
</style>
<path class="st0" d="M6.5,5.17L6.1,5.69H4.34V3.69H6.5L6.1,4.21H4.95v0.21H6.4L6,4.93H4.95v0.24H6.5z"/>
<path class="st0" d="M6.62,6.66H5.68L2.65,5.02l0.01,1.64H2.04V2.9h0.61v1.48l2.14-1.53L5.65,2.9L3.11,4.71L6.62,6.66z"/>
<path class="st0" d="M9.02,5.43c0,0.18-0.08,0.27-0.25,0.27c-0.12,0-0.23-0.04-0.34-0.13L7.28,4.59v1.09H6.66V3.95
	c0-0.07,0.02-0.13,0.07-0.18c0.05-0.05,0.11-0.07,0.2-0.07c0.11,0,0.22,0.04,0.31,0.12L8.4,4.79v-1.1h0.62V5.43z"/>
<path class="st0" d="M11.69,5.43c0,0.18-0.08,0.27-0.25,0.27c-0.12,0-0.23-0.04-0.34-0.13L9.94,4.59v1.09H9.32V3.95
	c0-0.07,0.02-0.13,0.07-0.18c0.05-0.05,0.11-0.07,0.2-0.07c0.11,0,0.22,0.04,0.31,0.12l1.17,0.98v-1.1h0.62V5.43z"/>
<path class="st0" d="M14.04,5.17l-0.4,0.51h-1.76V3.69h2.16l-0.4,0.51H12.5v0.21h1.45l-0.4,0.51H12.5v0.24H14.04z"/>
<path class="st0" d="M16.45,3.69l-0.4,0.51h-0.6v1.48h-0.62V4.21h-0.82l0.4-0.51H16.45z"/>
<path class="st0" d="M19.03,5.69h-0.62V4.94h-1.18v0.75h-0.62V3.69h0.62v0.73h1.18V3.69h0.62V5.69z"/>
<path class="st0" d="M25.93,5.69h-0.9l-0.6-0.5h-0.85v0.5h-0.62V4.67h1.72c0.1,0,0.19-0.02,0.26-0.05c0.09-0.04,0.13-0.1,0.13-0.18
	c0-0.16-0.13-0.23-0.39-0.23h-1.72l0.4-0.51h1.26c0.31,0,0.56,0.06,0.76,0.18c0.22,0.13,0.33,0.33,0.33,0.57
	c0,0.14-0.04,0.27-0.13,0.38c-0.09,0.11-0.21,0.2-0.36,0.26L25.93,5.69z"/>
<path class="st0" d="M26.96,5.69l0.37-0.51h0.83l-0.52-0.72l-0.9,1.23h-0.76l1.28-1.77c0.04-0.06,0.1-0.11,0.17-0.15
	c0.08-0.05,0.16-0.07,0.23-0.07c0.08,0,0.15,0.02,0.23,0.07c0.07,0.04,0.12,0.09,0.17,0.15l1.25,1.77H26.96z"/>
<path class="st0" d="M33,5.69h-0.68l-0.26-1.05l-0.56,0.9c-0.07,0.12-0.17,0.17-0.3,0.17c-0.07,0-0.13-0.02-0.19-0.05
	c-0.06-0.03-0.11-0.07-0.14-0.12l-0.56-0.9l-0.26,1.05h-0.68l0.52-1.77c0.02-0.07,0.06-0.13,0.13-0.18
	c0.07-0.05,0.14-0.07,0.23-0.07c0.13,0,0.24,0.08,0.34,0.23l0.61,0.99l0.61-0.99c0.09-0.15,0.21-0.23,0.34-0.23
	c0.09,0,0.16,0.02,0.23,0.07c0.06,0.05,0.11,0.11,0.13,0.18L33,5.69z"/>
<path class="st0" d="M35.75,4.44c0,0.22-0.1,0.41-0.29,0.55c-0.19,0.13-0.42,0.2-0.69,0.2h-1.04v0.5h-0.62V4.67h1.72
	c0.08,0,0.16-0.02,0.21-0.06c0.06-0.04,0.09-0.1,0.09-0.17c0-0.07-0.03-0.13-0.09-0.17c-0.06-0.04-0.13-0.06-0.21-0.06h-1.72
	l0.41-0.51h1.25c0.27,0,0.5,0.07,0.69,0.2C35.66,4.03,35.75,4.22,35.75,4.44z"/>
<path class="st0" d="M37.96,5.17l-0.4,0.51H35.8V3.69h2.16l-0.4,0.51h-1.15v0.21h1.45l-0.4,0.51h-1.05v0.24H37.96z"/>
<path class="st0" d="M25.25,6.6h-0.94l-3.03-1.64l0.01,1.64h-0.62V2.84h0.61v1.48l2.14-1.53l0.87,0.05l-2.54,1.81L25.25,6.6z"/>
</svg>
